{
  "accessors": [
    {
      "bufferView": 1,
      "componentType": 5126,
      "count": 3345,
      "max": [
        3.0,
        48.106536865234375,
        -0.029104171320796013
      ],
      "min": [
        0.0,
        0.0003776186204049736,
        -10.813519477844238
      ],
      "type": "VEC3"
    },
    {
      "bufferView": 1,
      "byteOffset": 40140,
      "componentType": 5126,
      "count": 3345,
      "max": [
        1.0,
        0.9999999403953552,
        0.9999870657920837
      ],
      "min": [
        -1.0,
        -1.0,
        -0.9999879598617554
      ],
      "type": "VEC3"
    },
    {
      "bufferView": 1,
      "byteOffset": 80280,
      "componentType": 5126,
      "count": 3345,
      "max": [
        1.0,
        0.6000000238418579,
        0.003921568859368563
      ],
      "min": [
        1.0,
        0.6000000238418579,
        0.003921568859368563
      ],
      "type": "VEC3"
    },
    {
      "bufferView": 0,
      "componentType": 5125,
      "count": 17322,
      "type": "SCALAR"
    }
  ],
  "asset": {
    "extras": {
      "author": "Ark Studios Cloud Marketing Services (https://sketchfab.com/Aris_117)",
      "license": "CC-BY-4.0 (http://creativecommons.org/licenses/by/4.0/)",
      "source": "https://sketchfab.com/3d-models/aws-brand-smile-2af9a0ff80bf4f57b539b076bb660a19",
      "title": "AWS Brand Smile"
    },
    "generator": "Sketchfab-15.27.0",
    "version": "2.0"
  },
  "bufferViews": [
    {
      "buffer": 0,
      "byteLength": 69288,
      "name": "floatBufferViews",
      "target": 34963
    },
    {
      "buffer": 0,
      "byteLength": 120420,
      "byteOffset": 69288,
      "byteStride": 12,
      "name": "floatBufferViews",
      "target": 34962
    }
  ],
  "buffers": [
    {
      "byteLength": 189708,
      "uri": "scene.bin"
    }
  ],
  "extensionsUsed": [
    "KHR_materials_specular"
  ],
  "materials": [
    {
      "doubleSided": true,
      "extensions": {
        "KHR_materials_specular": {
          "specularColorFactor": [
            1.0,
            1.0,
            1.0
          ],
          "specularFactor": 0.2605722226962977
        }
      },
      "name": "Scene_-_Root",
      "pbrMetallicRoughness": {
        "metallicFactor": 0.0,
        "roughnessFactor": 0.014092233423949607
      }
    }
  ],
  "meshes": [
    {
      "name": "Object_0",
      "primitives": [
        {
          "attributes": {
            "COLOR_0": 2,
            "NORMAL": 1,
            "POSITION": 0
          },
          "indices": 3,
          "material": 0,
          "mode": 4
        }
      ]
    }
  ],
  "nodes": [
    {
      "children": [
        1
      ],
      "matrix": [
        1.0,
        0.0,
        0.0,
        0.0,
        0.0,
        2.220446049250313e-16,
        -1.0,
        0.0,
        0.0,
        1.0,
        2.220446049250313e-16,
        0.0,
        0.0,
        0.0,
        0.0,
        1.0
      ],
      "name": "Sketchfab_model"
    },
    {
      "children": [
        2
      ],
      "name": "Geode"
    },
    {
      "mesh": 0,
      "name": "Object_2"
    }
  ],
  "scene": 0,
  "scenes": [
    {
      "name": "Sketchfab_Scene",
      "nodes": [
        0
      ]
    }
  ]
}
