<svg xmlns="http://www.w3.org/2000/svg" version="1.1" xmlns:xlink="http://www.w3.org/1999/xlink" xmlns:svgjs="http://svgjs.dev/svgjs" width="1500" height="1500" viewBox="0 0 1500 1500"><rect width="1500" height="1500" fill="#ffffff"></rect><g transform="matrix(0.6666666666666666,0,0,0.6666666666666666,249.85778443113782,249.85778443113765)"><svg viewBox="0 0 334 334" data-background-color="#f9f9f9" preserveAspectRatio="xMidYMid meet" height="1500" width="1500" xmlns="http://www.w3.org/2000/svg" xmlns:xlink="http://www.w3.org/1999/xlink"><g id="tight-bounds" transform="matrix(1,0,0,1,0.04749999999998522,0.04750000000001364)"><svg viewBox="0 0 333.90454557049503 333.90454557049503" height="333.90454557049503" width="333.90454557049503"><g><svg></svg></g><g><svg viewBox="0 0 333.90454557049503 333.90454557049503" height="333.90454557049503" width="333.90454557049503"><g><path d="M0 166.952c0-92.205 74.747-166.952 166.952-166.952 92.205 0 166.952 74.747 166.953 166.952 0 92.205-74.747 166.952-166.953 166.953-92.205 0-166.952-74.747-166.952-166.953zM166.952 327.467c88.65 0 160.515-71.865 160.515-160.515 0-88.65-71.865-160.515-160.515-160.514-88.65 0-160.515 71.865-160.514 160.514 0 88.65 71.865 160.515 160.514 160.515z" data-fill-palette-color="tertiary" fill="#000000" stroke="transparent"></path><ellipse rx="160.27418187383762" ry="160.27418187383762" cx="166.95227278524752" cy="166.95227278524752" fill="#000000" stroke="transparent" stroke-width="0" fill-opacity="1" data-fill-palette-color="tertiary"></ellipse></g><g transform="matrix(1,0,0,1,101.81662429786022,71.17305217166896)"><svg viewBox="0 0 130.2712969747746 191.55844122715712" height="191.55844122715712" width="130.2712969747746"><g><svg viewBox="0 0 130.2712969747746 191.55844122715712" height="191.55844122715712" width="130.2712969747746"><g><svg viewBox="0 0 213.1584412271571 313.4404867696332" height="191.55844122715712" width="130.2712969747746"><g transform="matrix(1,0,0,1,0,151.76087453616177)"><svg viewBox="0 0 213.1584412271571 161.67961223347143" height="161.67961223347143" width="213.1584412271571"><g id="textblocktransform"><svg viewBox="0 0 213.1584412271571 161.67961223347143" height="161.67961223347143" width="213.1584412271571" id="textblock"><g><svg viewBox="0 0 213.1584412271571 116.80406912632955" height="116.80406912632955" width="213.1584412271571"><g transform="matrix(1,0,0,1,0,0)"><svg width="213.1584412271571" viewBox="-0.35 -32.35 59.309999995775 32.5" height="116.80406912632955" data-palette-color="#f9f9f9"><path d="M5.35-32.1L5.35-32.1Q6.95-32.1 8.45-32.18 9.95-32.25 11.4-32.3L11.4-32.3Q11.5-32.1 11.48-31.53 11.45-30.95 11.3-30.9L11.3-30.9Q11.1-30.9 10.38-30.78 9.65-30.65 9-30.33 8.35-30 8.35-29.3L8.35-29.3Q8.35-28.5 9.25-26L9.25-26Q9.65-24.9 10.33-23.08 11-21.25 11.8-19.05 12.6-16.85 13.43-14.65 14.25-12.45 14.93-10.6 15.6-8.75 16.03-7.58 16.45-6.4 16.5-6.3L16.5-6.3Q16.6-6.5 17.15-7.83 17.7-9.15 18.53-11.2 19.35-13.25 20.35-15.73 21.35-18.2 22.38-20.75 23.4-23.3 24.3-25.55L24.3-25.55Q24.65-26.4 24.9-27.35 25.15-28.3 25.15-28.95L25.15-28.95Q25.15-29.75 24.48-30.15 23.8-30.55 23.03-30.7 22.25-30.85 21.95-30.85L21.95-30.85Q21.75-30.95 21.75-31.53 21.75-32.1 21.95-32.3L21.95-32.3Q23.3-32.25 24.5-32.18 25.7-32.1 27.05-32.1L27.05-32.1Q28.2-32.1 28.88-32.13 29.55-32.15 30.2-32.2 30.85-32.25 31.8-32.3L31.8-32.3Q31.9-32.1 31.85-31.5 31.8-30.9 31.7-30.9L31.7-30.9Q31.4-30.9 30.33-30.65 29.25-30.4 28.6-29.65L28.6-29.65Q28.15-29.15 27.43-27.63 26.7-26.1 26.15-24.7L26.15-24.7Q24.8-21.35 23.68-18.55 22.55-15.75 21.48-13.15 20.4-10.55 19.25-7.75 18.1-4.95 16.65-1.55L16.65-1.55Q16.25-0.6 15.78-0.25 15.3 0.1 14.8 0.1L14.8 0.1Q14.65 0.1 14.55-0.23 14.45-0.55 14.35-0.7L14.35-0.7Q12.7-5.05 11.28-8.83 9.85-12.6 8.38-16.5 6.9-20.4 5.05-25.1L5.05-25.1Q4.5-26.55 3.98-27.7 3.45-28.85 2.8-29.8L2.8-29.8Q2.55-30.2 1.9-30.45 1.25-30.7 0.63-30.8 0-30.9-0.3-30.9L-0.3-30.9Q-0.35-30.9-0.35-31.58-0.35-32.25-0.3-32.3L-0.3-32.3Q1.4-32.25 2.53-32.18 3.65-32.1 5.35-32.1ZM32.7-6.8L32.7-6.8Q32.7-6.8 33.17-8.03 33.65-9.25 34.45-11.35 35.25-13.45 36.27-16.03 37.3-18.6 38.35-21.33 39.4-24.05 40.37-26.55 41.35-29.05 42.1-30.95L42.1-30.95Q42.3-31.35 42.97-31.85 43.65-32.35 44-32.35L44-32.35Q44.1-32.35 44.12-32.33 44.15-32.3 44.25-32.25L44.25-32.25 54.2-6.15Q55.3-3.25 55.45-2.95L55.45-2.95Q55.7-2.4 56.42-2 57.15-1.6 57.87-1.43 58.6-1.25 58.8-1.25L58.8-1.25Q59-1 58.95-0.48 58.9 0.05 58.85 0.15L58.85 0.15Q57.4 0.05 56.25-0.03 55.1-0.1 53.5-0.1L53.5-0.1Q51.8-0.1 50.67-0.03 49.55 0.05 47.85 0.15L47.85 0.15Q47.65-0.05 47.67-0.55 47.7-1.05 47.9-1.25L47.9-1.25Q48.35-1.25 49.3-1.43 50.25-1.6 50.6-1.9L50.6-1.9Q50.8-2.1 50.8-2.6L50.8-2.6Q50.8-3.05 50.47-4.13 50.15-5.2 49.65-6.55 49.15-7.9 48.65-9.18 48.15-10.45 47.82-11.28 47.5-12.1 47.5-12.1L47.5-12.1Q47.5-12.1 47.4-12.2 47.3-12.3 47.2-12.3L47.2-12.3Q46.45-12.35 45.35-12.35 44.25-12.35 43.3-12.35L43.3-12.35Q43.05-12.35 42.8-12.35 42.55-12.35 42.35-12.35L42.35-12.35Q40.85-12.35 39.8-12.33 38.75-12.3 37.1-12.2L37.1-12.2Q37.05-12.2 36.95-12.13 36.85-12.05 36.85-12.05L36.85-12.05Q36.85-12.05 36.47-11.05 36.1-10.05 35.57-8.68 35.05-7.3 34.65-6.1L34.65-6.1Q34.2-4.85 34.07-4 33.95-3.15 33.95-2.65L33.95-2.65Q33.95-2.1 34.72-1.78 35.5-1.45 36.32-1.35 37.15-1.25 37.35-1.25L37.35-1.25Q37.45-1.15 37.5-0.63 37.55-0.1 37.45 0.15L37.45 0.15Q36.5 0.1 35.82 0.05 35.15 0 34.47-0.05 33.8-0.1 32.7-0.1L32.7-0.1Q31.6-0.1 30.85-0.05 30.1 0 29.35 0.05 28.6 0.1 27.45 0.15L27.45 0.15Q27.35 0.05 27.35-0.48 27.35-1 27.45-1.25L27.45-1.25Q27.9-1.25 28.97-1.48 30.05-1.7 30.4-2.2L30.4-2.2Q31.15-3.15 31.67-4.33 32.2-5.5 32.7-6.8ZM46.55-14.65L42.25-26.45 37.8-14.55Q37.8-14.55 37.82-14.45 37.85-14.35 37.9-14.35L37.9-14.35Q38.85-14.3 40.17-14.28 41.5-14.25 42.3-14.25L42.3-14.25Q43.45-14.25 44.37-14.3 45.3-14.35 46.4-14.4L46.4-14.4Q46.5-14.4 46.52-14.53 46.55-14.65 46.55-14.65L46.55-14.65Z" opacity="1" transform="matrix(1,0,0,1,0,0)" fill="#ffffff" class="wordmark-text-0" data-fill-palette-color="quaternary" id="text-0"></path></svg></g></svg></g><g transform="matrix(1,0,0,1,0,144.37870654939692)"><svg viewBox="0 0 213.1584412271571 17.300905684074507" height="17.300905684074507" width="213.1584412271571"><g transform="matrix(1,0,0,1,0,0)"><svg width="213.1584412271571" viewBox="2.25 -26.65 340.05 27.599999999999998" height="17.300905684074507" data-palette-color="#f9f9f9"><path d="M13.45-2.9L13.45-2.9Q16.9-2.9 19.95-5.95L19.95-5.95 20.65-5.25Q17.3-1 12.6 0.6L12.6 0.6Q7.75 0.6 5-2.48 2.25-5.55 2.25-10.78 2.25-16 5.5-20.6 8.75-25.2 13.8-26.65L13.8-26.65Q17.45-26.65 22.05-25.9L22.05-25.9 22-24.8Q21.05-24.8 20.2-24.45L20.2-24.45Q19.25-22.2 18.95-19.1L18.95-19.1 17.7-19.1Q17.3-20.8 17.3-22.6L17.3-22.6Q15.4-23.55 12.8-23.55 10.2-23.55 8.5-22.15L8.5-22.15Q6.55-18.6 6.55-13.55L6.55-13.55Q6.55-5.7 9.9-3.7L9.9-3.7Q11.35-2.9 13.45-2.9ZM42.4-0.45L42.15 0.55Q38.9 0 33.33 0 27.75 0 24 0.5L24 0.5 23.85-0.75Q25.25-1.3 27.05-1.65L27.05-1.65Q27.55-4.65 27.55-11.85L27.55-11.85 27.55-14.2Q27.55-20.4 27.05-24.4L27.05-24.4Q25.4-24.65 23.9-25.15L23.9-25.15 24.1-26.45Q26.65-26.05 30.1-26.05 33.55-26.05 36-26.45L36-26.45 36.15-25.2Q33.9-24.65 31.7-24.4L31.7-24.4Q31.3-21.7 31.3-13.28 31.3-4.85 31.7-2.05L31.7-2.05Q32.9-1.85 35.1-1.85 37.3-1.85 39.05-2.7L39.05-2.7Q39.75-4.4 39.75-6.7L39.75-6.7 41-6.7Q41.2-2.85 42.4-0.45L42.4-0.45ZM55.2 0.6Q50.25 0.6 47.2-2.53 44.15-5.65 44.15-10.9 44.15-16.15 47.35-20.75 50.55-25.35 55.7-26.65L55.7-26.65Q60.85-26.65 63.55-23.73 66.25-20.8 66.25-15.4 66.25-10 63.33-5.65 60.4-1.3 55.2 0.6L55.2 0.6ZM54.35-23.6L54.35-23.6Q52.1-23.6 50.45-22.35L50.45-22.35Q48.4-18.85 48.4-13.55L48.4-13.55Q48.4-7.45 51.8-4.2L51.8-4.2Q53.6-2.45 56.05-2.45 58.5-2.45 60-3.75L60-3.75Q62-7.25 62-12.3 62-17.35 60.2-20.48 58.4-23.6 54.35-23.6ZM91.4-14.2L91.4-14.2 91.4-11.85Q91.4-5 91.9-1.6L91.9-1.6Q94.2-1.3 95.7-0.9L95.7-0.9 95.55 0.35Q93.1 0 90.53 0 87.95 0 87 0.15L87 0.15 86.8-0.5Q87.25-1 87.4-3.35L87.4-3.35Q84.8-0.65 81.4 0.6L81.4 0.6Q72.8 0.6 72.8-9.65L72.8-9.65Q72.8-11.9 73.15-16.85 73.5-21.8 73.5-22.65 73.5-23.5 73.2-24.3L73.2-24.3 73.2-24.35Q71.1-24.7 69.85-25.1L69.85-25.1 70.05-26.45Q72.95-26.05 75.3-26.05 77.65-26.05 79.15-26.3L79.15-26.3 79.35-25.45Q77.55-24.5 77.25-22L77.25-22Q76.65-17.2 76.65-12.15 76.65-7.1 77.83-4.98 79-2.85 82.23-2.85 85.45-2.85 87.45-4.7L87.45-4.7Q87.65-8.7 87.65-14.15 87.65-19.6 87.25-24.4L87.25-24.4Q85-24.65 83.1-25.15L83.1-25.15 83.25-26.4Q85.85-26.05 89.08-26.05 92.3-26.05 94.85-26.45L94.85-26.45 95.05-25.15Q93.65-24.7 91.9-24.4L91.9-24.4Q91.4-21.05 91.4-14.2ZM99.05-24.7L99.05-25.95 110.55-26.3Q116.25-26.3 119.33-23.6 122.4-20.9 122.4-15.53 122.4-10.15 119.03-5.5 115.65-0.85 110.65 0.6L110.65 0.6Q109.35 0.6 107.28 0.13 105.2-0.35 103.85-0.9L103.85-0.9Q103.3-0.25 102.85 0.95L102.85 0.95 101.8 0.7Q102.75-3.75 102.75-11.88 102.75-20 102.3-24.05L102.3-24.05Q100.6-24.7 99.05-24.7L99.05-24.7ZM116.25-20.95Q115.35-22.65 113.73-23.6 112.1-24.55 110.18-24.55 108.25-24.55 106.85-24L106.85-24Q106.5-20.75 106.5-13.63 106.5-6.5 106.7-3.75L106.7-3.75Q109.2-2.6 111.83-2.6 114.45-2.6 116-3.95L116-3.95Q117.9-7.55 117.9-12.8L117.9-12.8Q117.9-17.7 116.25-20.95L116.25-20.95ZM138.45-25.3L138.6-26.6Q143.3-26.05 148.1-26.05 152.9-26.05 157.55-26.6L157.55-26.6 157.75-25.3Q156.25-24.7 154.65-24.4L154.65-24.4Q154.1-20.3 154.1-13 154.1-5.7 154.65-1.6L154.65-1.6Q155.65-1.45 158.35-0.85L158.35-0.85 158.15 0.4Q155.75 0 152 0 148.25 0 146.25 0.4L146.25 0.4 146.05-0.9Q147.75-1.45 149.9-1.7L149.9-1.7Q150.2-4.6 150.35-9.75L150.35-9.75Q148-10 145.65-10 143.3-10 141.55-9.75L141.55-9.75Q140.55-5.65 140.55-4.05L140.55-4.05Q140.55-1.6 142.3-0.6L142.3-0.6 142.1 0.25Q140.95 0 137.75 0 134.55 0 132.7 0.4L132.7 0.4 132.5-0.9Q133.7-1.35 135.8-1.7L135.8-1.7 142.3-24.5Q140.1-24.85 138.45-25.3L138.45-25.3ZM144.9-24.05L141.95-12.1Q143.9-11.8 146.28-11.8 148.65-11.8 150.35-12.1L150.35-12.1Q150.35-21.35 149.95-24.05L149.95-24.05Q148.25-24.15 147.43-24.15 146.6-24.15 144.9-24.05L144.9-24.05ZM162.1-24.95L162.1-25.95 173.6-26.3Q178.1-26.3 180.35-24.98 182.6-23.65 182.6-20.15L182.6-20.15Q182.6-17.75 181.13-15.9 179.65-14.05 177.25-13.15L177.25-13.15 182.85-1.7Q184.55-1.4 186.05-1L186.05-1 185.85 0.35Q183.75 0 181.13 0 178.5 0 177 0.25L177 0.25 176.8-0.55Q177.45-1.2 177.45-2.7L177.45-2.7Q177.45-5.75 173.95-12.5L173.95-12.5Q172.9-12.7 171.5-12.7L171.5-12.7 171.6-14.15 172.1-14.15Q178-14.15 178-19.55L178-19.55Q178-24.55 172.95-24.55L172.95-24.55Q171.25-24.55 169.9-24L169.9-24Q169.55-20.7 169.55-12.7 169.55-4.7 170-1.65L170-1.65Q172.2-1.4 174.1-0.9L174.1-0.9 173.95 0.35Q171.35 0 168.13 0 164.9 0 162.35 0.4L162.35 0.4 162.15-0.9Q163.55-1.35 165.3-1.65L165.3-1.65Q165.8-5.4 165.8-13.33 165.8-21.25 165.35-24.3L165.35-24.3Q163.4-24.95 162.1-24.95L162.1-24.95ZM199.7-2.9L199.7-2.9Q203.15-2.9 206.2-5.95L206.2-5.95 206.9-5.25Q203.55-1 198.85 0.6L198.85 0.6Q194 0.6 191.25-2.48 188.5-5.55 188.5-10.78 188.5-16 191.75-20.6 195-25.2 200.05-26.65L200.05-26.65Q203.7-26.65 208.3-25.9L208.3-25.9 208.25-24.8Q207.3-24.8 206.45-24.45L206.45-24.45Q205.5-22.2 205.2-19.1L205.2-19.1 203.95-19.1Q203.55-20.8 203.55-22.6L203.55-22.6Q201.65-23.55 199.05-23.55 196.45-23.55 194.75-22.15L194.75-22.15Q192.8-18.6 192.8-13.55L192.8-13.55Q192.8-5.7 196.15-3.7L196.15-3.7Q197.6-2.9 199.7-2.9ZM225.7-25.15L225.9-26.45Q228.45-26.05 231.68-26.05 234.9-26.05 237.5-26.4L237.5-26.4 237.65-25.15Q235.75-24.65 233.5-24.4L233.5-24.4Q233-21.3 233-14.2L233-14.2 233-11.85Q233-4.65 233.5-1.65L233.5-1.65Q235.75-1.4 237.65-0.9L237.65-0.9 237.5 0.35Q234.9 0 231.68 0 228.45 0 225.9 0.4L225.9 0.4 225.7-0.9Q227.1-1.35 228.85-1.65L228.85-1.65Q229.25-7.3 229.3-12.95L229.3-12.95Q226.1-13.25 223.4-13.25 220.7-13.25 217.55-12.95L217.55-12.95Q217.55-4.7 218-1.65L218-1.65Q220.25-1.4 222.15-0.9L222.15-0.9 222 0.35Q219.4 0 216.18 0 212.95 0 210.4 0.4L210.4 0.4 210.2-0.9Q211.6-1.35 213.35-1.65L213.35-1.65Q213.8-5.25 213.8-11.85L213.8-11.85 213.8-14.2Q213.8-20.8 213.3-24.4L213.3-24.4Q211.55-24.7 210.15-25.15L210.15-25.15 210.35-26.45Q212.9-26.05 216.13-26.05 219.35-26.05 221.95-26.4L221.95-26.4 222.1-25.15Q220.2-24.65 217.95-24.4L217.95-24.4Q217.55-21.5 217.55-15.45L217.55-15.45Q220.35-15.05 223.58-15.05 226.8-15.05 229.3-15.4L229.3-15.4Q229.25-19.65 228.85-24.4L228.85-24.4Q227.1-24.7 225.7-25.15L225.7-25.15ZM248.85-24.4L248.85-24.4Q248.45-21.7 248.45-13.35 248.45-5 248.9-1.65L248.9-1.65Q251.15-1.4 253.05-0.9L253.05-0.9 252.9 0.35Q250.3 0 247.08 0 243.85 0 241.3 0.4L241.3 0.4 241.1-0.9Q242.5-1.35 244.25-1.65L244.25-1.65Q244.7-5.25 244.7-11.85L244.7-11.85 244.7-14.2Q244.7-20.8 244.2-24.4L244.2-24.4Q242.45-24.7 241.05-25.15L241.05-25.15 241.25-26.45Q243.8-26.05 247.03-26.05 250.25-26.05 252.85-26.4L252.85-26.4 253-25.15Q251.1-24.65 248.85-24.4ZM272.8-23.35L272.8-23.35Q271.05-24.2 269.45-24.2 267.85-24.2 267.3-24L267.3-24Q266.9-21.3 266.9-13.55 266.9-5.8 267.45-1.65L267.45-1.65Q269.7-1.4 271.6-0.9L271.6-0.9 271.45 0.35Q268.85 0 265.48 0 262.1 0 259.55 0.4L259.55 0.4 259.35-0.9Q260.35-1.2 262.8-1.65L262.8-1.65Q263.25-5.25 263.25-11.85L263.25-11.85 263.25-14.2Q263.25-17.7 262.7-24L262.7-24Q262.15-24.2 260.65-24.2 259.15-24.2 257.45-23.5L257.45-23.5Q256.95-21.95 256.75-19.35L256.75-19.35 255.45-19.35Q255.45-23.45 254.1-25.7L254.1-25.7 254.35-26.55Q258.2-26.05 265.15-26.05 272.1-26.05 276.35-26.6L276.35-26.6 276.65-25.65Q275.4-24.25 274.95-22.93 274.5-21.6 274.4-19.35L274.4-19.35 273.15-19.35Q272.8-21 272.8-23.35ZM282.4-12.35Q282.55-7.9 284.05-5.4 285.55-2.9 289.15-2.9 292.75-2.9 295.8-5.95L295.8-5.95 296.5-5.25Q293.15-1 288.45 0.6L288.45 0.6Q283.6 0.6 280.85-2.48 278.1-5.55 278.1-10.78 278.1-16 281.35-20.6 284.6-25.2 289.65-26.65L289.65-26.65Q293.3-26.65 297.9-25.9L297.9-25.9 297.85-24.8Q296.9-24.8 296.05-24.45L296.05-24.45Q295.1-22.2 294.8-19.1L294.8-19.1 293.55-19.1Q293.15-20.8 293.15-22.6L293.15-22.6Q291.25-23.55 288.65-23.55 286.05-23.55 284.35-22.15L284.35-22.15Q282.65-19.05 282.4-14.75L282.4-14.75Q284.5-14.4 286.9-14.4L286.9-14.4Q291.05-14.4 291.9-16.15L291.9-16.15 292.95-16Q292.5-14.5 292.5-13.05 292.5-11.6 292.85-9.5L292.85-9.5 291.65-9.3Q291.1-10.8 290.85-12.4L290.85-12.4Q288.85-12.6 286.88-12.6 284.9-12.6 282.4-12.35L282.4-12.35ZM311.7-2.9L311.7-2.9Q315.15-2.9 318.2-5.95L318.2-5.95 318.9-5.25Q315.55-1 310.85 0.6L310.85 0.6Q306 0.6 303.25-2.48 300.5-5.55 300.5-10.78 300.5-16 303.75-20.6 307-25.2 312.05-26.65L312.05-26.65Q315.7-26.65 320.3-25.9L320.3-25.9 320.25-24.8Q319.3-24.8 318.45-24.45L318.45-24.45Q317.5-22.2 317.2-19.1L317.2-19.1 315.95-19.1Q315.55-20.8 315.55-22.6L315.55-22.6Q313.65-23.55 311.05-23.55 308.45-23.55 306.75-22.15L306.75-22.15Q304.8-18.6 304.8-13.55L304.8-13.55Q304.8-5.7 308.15-3.7L308.15-3.7Q309.6-2.9 311.7-2.9ZM338.45-23.35L338.45-23.35Q336.7-24.2 335.1-24.2 333.5-24.2 332.95-24L332.95-24Q332.55-21.3 332.55-13.55 332.55-5.8 333.1-1.65L333.1-1.65Q335.35-1.4 337.25-0.9L337.25-0.9 337.1 0.35Q334.5 0 331.13 0 327.75 0 325.2 0.4L325.2 0.4 325-0.9Q326-1.2 328.45-1.65L328.45-1.65Q328.9-5.25 328.9-11.85L328.9-11.85 328.9-14.2Q328.9-17.7 328.35-24L328.35-24Q327.8-24.2 326.3-24.2 324.8-24.2 323.1-23.5L323.1-23.5Q322.6-21.95 322.4-19.35L322.4-19.35 321.1-19.35Q321.1-23.45 319.75-25.7L319.75-25.7 320-26.55Q323.85-26.05 330.8-26.05 337.75-26.05 342-26.6L342-26.6 342.3-25.65Q341.05-24.25 340.6-22.93 340.15-21.6 340.05-19.35L340.05-19.35 338.8-19.35Q338.45-21 338.45-23.35Z" opacity="1" transform="matrix(1,0,0,1,0,0)" fill="#ffffff" class="slogan-text-1" data-fill-palette-color="quaternary" id="text-1"></path></svg></g></svg></g></svg></g></svg></g><g transform="matrix(1,0,0,1,40.713262274387006,0)"><svg viewBox="0 0 131.7319166783831 124.18623711309438" height="124.18623711309438" width="131.7319166783831"><g><svg xmlns="http://www.w3.org/2000/svg" xml:space="preserve" viewBox="0 -5.985239739586671e-8 99.99900000000001 94.27100005985241" id="icon-0" width="131.7319166783831" height="124.18623711309438" x="0" y="0" class="icon-icon-0" data-fill-palette-color="quaternary"><path fill="#ffffff" d="M67.515 16.756a8.375 8.375 0 0 0 8.375-8.378A8.375 8.375 0 0 0 67.515 0a8.375 8.375 0 0 0-8.376 8.378 8.375 8.375 0 0 0 8.376 8.378" data-fill-palette-color="quaternary"></path><path fill="#ffffff" d="M70.436 62.281c6.465 0.848 10.118 1.283 12.493 1.289a6.5 6.5 0 0 0 2.457-0.174 6.4 6.4 0 0 0 1.801-0.79h0.012c2.84-1.777 4.269-5.634 3.241-9.502l-8.057-30.438c-1.231-4.62-5.471-7.507-9.484-6.444-1.864 0.494-3.34 1.757-4.28 3.424l-13.766 4.958-19.432-1.133 2.126-4.56-0.68-0.319-2.253 4.833-0.648-0.038c-1.173-0.07-2.21 1.344-2.317 3.156-0.003 0.059 0.003 0.113 0 0.172L7.112 15.905l-1.136 2.579 54.121 23.837 1.133-2.579-21.415-9.432 15.491 0.9c0.116 0.021 0.238 0.032 0.359 0.023l0.151 0.009c0.395 0.023 0.767-0.131 1.092-0.398l11.036-3.97 6.47 24.45-11.674-0.871-13.04-0.822c-2.006 0-3.299 1.002-4.01 2.75l-0.357 2.245v34.57a4.788 4.788 0 1 0 9.575 0l-0.049-28.82z" data-fill-palette-color="quaternary"></path><path fill="#ffffff" d="M31.565 32.151l17.462 7.658 0.665-1.518-35.587-15.613-0.667 1.519 14.322 6.284h-1.64v58.106H0v4.652h42.426v-4.652H31.565zM98.223 64.116h-0.784V49.703l1.242-11.346c0.1-0.944-0.824-1.821-2.067-1.958-1.237-0.134-2.329 0.52-2.428 1.466l-2.172 19.786c-0.105 0.946 0.824 1.823 2.062 1.957a2.74 2.74 0 0 0 1.481-0.244v4.751H67.364c-0.987 0-1.777 0.895-1.777 2.004s0.79 2.004 1.777 2.004h13.405v19.608l-9.479 0.912 0.104 1.133c-0.017 0-0.034-0.012-0.058-0.012-1.243 0-2.254 1.011-2.254 2.254s1.011 2.253 2.254 2.253 2.254-1.01 2.254-2.253c0-0.477-0.151-0.93-0.413-1.29l7.592-0.731v3.99h3.009v-4.043l8.154 0.784a2.26 2.26 0 0 0-0.412 1.29 2.25 2.25 0 1 0 4.501 0 2.25 2.25 0 0 0-2.253-2.254c-0.035 0-0.07 0.012-0.104 0.012l0.104-1.133-9.99-0.958V68.124h14.445c0.981 0 1.776-0.895 1.776-2.004s-0.794-2.004-1.776-2.004" data-fill-palette-color="quaternary"></path></svg></g></svg></g><g></g></svg></g></svg></g></svg></g></svg></g><defs></defs></svg><rect width="333.90454557049503" height="333.90454557049503" fill="none" stroke="none" visibility="hidden"></rect></g></svg></g></svg>